<svg xmlns="http://www.w3.org/2000/svg" width="16" height="16" fill="none"><path d="M13.167 16H2.833C1.267 16 0 14.701 0 13.094V2.906C0 1.299 1.267 0 2.833 0h10.333C14.733 0 16 1.299 16 2.906v10.188C16 14.701 14.733 16 13.167 16z" fill="#d8a1ff"/><path d="M12.695 15H3.311C2.038 15 1 13.934 1 12.625v-9.25C1 2.066 2.038 1 3.311 1h9.378C13.969 1 15 2.066 15 3.375v9.244C15.006 13.934 13.969 15 12.695 15z" fill="#1a0732"/><path d="M11.182 7.904l.46-.013c0-.046.012-.079.012-.112 0-.355-.162-1.014-.808-1.014-.597 0-.851.553-.913 1.139h1.249zm-1.261.902c.012.889.41 1.488 1.355 1.488.367 0 .683-.053 1.013-.204.043-.02.075-.013.075.046v.823c0 .066-.019.099-.062.132-.329.171-.739.25-1.249.25-1.64 0-2.256-1.284-2.256-2.712 0-1.554.758-2.824 2.094-2.824 1.355 0 1.827 1.205 1.827 2.186 0 .316-.019.573-.05.698-.012.053-.031.072-.081.086-.124.02-.491.046-1.038.046H9.92v-.013zm-3.331-.671L5.838 5.04h-.012c-.13.77-.472 2.074-.727 3.094h1.491zM4.843 9.201l-.491 1.968c-.012.053-.031.072-.093.072h-.913c-.062 0-.075-.02-.062-.099l1.765-6.537c.031-.118.05-.211.062-.54 0-.046.019-.066.05-.066h1.305c.043 0 .062.013.075.066l1.976 7.09c.012.053 0 .085-.05.085H7.441c-.05 0-.081-.02-.093-.066l-.51-1.975H4.843h0z" fill="#d8a1ff"/></svg>