<svg xmlns="http://www.w3.org/2000/svg" width="16" height="16" fill="none"><path d="M13.167 16H2.833C1.267 16 0 14.701 0 13.094V2.906C0 1.299 1.267 0 2.833 0h10.333C14.733 0 16 1.299 16 2.906v10.188C16 14.701 14.733 16 13.167 16z" fill="#ff7c00"/><path d="M12.695 15H3.311C2.038 15 1 13.934 1 12.625v-9.25C1 2.066 2.038 1 3.311 1h9.378C13.969 1 15 2.066 15 3.375v9.244C15.006 13.934 13.969 15 12.695 15z" fill="#261300"/><path d="M5.753 9.656l-.522 1.949c-.013.052-.033.065-.099.065h-.971c-.066 0-.079-.019-.066-.098l1.877-6.457c.033-.117.053-.221.066-.539 0-.045.02-.065.053-.065h1.388c.046 0 .066.013.079.065l2.102 7.009c.013.052 0 .085-.053.085H8.509c-.053 0-.086-.013-.099-.059l-.549-1.955H5.753zM7.59 8.604l-.786-3.053h-.013c-.139.76-.489 2.046-.767 3.053H7.59zm2.974-3.612c0-.416.297-.663.674-.663a.63.63 0 0 1 .674.663c0 .429-.284.663-.687.663-.383 0-.661-.234-.661-.663zm.079 1.474c0-.052.02-.078.079-.078h1.038c.053 0 .079.019.079.078v5.125c0 .052-.013.078-.079.078h-1.024c-.066 0-.086-.032-.086-.085V6.467h-.007z" fill="#ff7c00"/></svg>