<svg width="16" height="16" viewBox="0 0 16 16" fill="none" xmlns="http://www.w3.org/2000/svg">
<path d="M14.5997 6.18373C14.5997 5.64053 14.1641 5.19434 13.6338 5.19434C13.1035 5.19434 12.668 5.64053 12.668 6.18373V10.3062C12.668 10.8494 13.1035 11.2956 13.6338 11.2956C14.1641 11.2956 14.5997 10.8494 14.5997 10.3062V6.18373Z" fill="#79C257"/>
<path d="M3.3321 6.18373C3.3321 5.64053 2.89652 5.19434 2.36624 5.19434C1.83597 5.19434 1.40039 5.64053 1.40039 6.18373V10.3062C1.40039 10.8494 1.83597 11.2956 2.36624 11.2956C2.89652 11.2956 3.3321 10.8494 3.3321 10.3062V6.18373Z" fill="#79C257"/>
<path d="M10.1115 1.46954L10.7933 0.208548C10.8311 0.140649 10.8075 0.0533495 10.7412 0.0193998C10.7223 0.00969991 10.6986 0 10.6749 0C10.6276 0 10.5802 0.0242498 10.5565 0.0727493L9.86529 1.34829C9.30188 1.09124 8.66745 0.945741 7.99987 0.945741C7.3323 0.945741 6.69786 1.09124 6.13445 1.34829L5.44793 0.0727493C5.41006 0.00484995 5.32957 -0.0193998 5.26329 0.0193998C5.197 0.0581995 5.17333 0.140649 5.21121 0.208548L5.89298 1.46954C4.57677 2.16793 3.69141 3.49197 3.69141 5.01485H12.3083C12.3083 3.49197 11.423 2.16793 10.1115 1.46954ZM6.01135 3.39982C5.8125 3.39982 5.65152 3.23492 5.65152 3.03122C5.65152 2.82752 5.8125 2.66262 6.01135 2.66262C6.2102 2.66262 6.37118 2.82752 6.37118 3.03122C6.37118 3.23492 6.2102 3.39982 6.01135 3.39982ZM9.98839 3.39982C9.78954 3.39982 9.62857 3.23492 9.62857 3.03122C9.62857 2.82752 9.78954 2.66262 9.98839 2.66262C10.1872 2.66262 10.3482 2.82752 10.3482 3.03122C10.3482 3.23492 10.1872 3.39982 9.98839 3.39982Z" fill="#79C257"/>
<path d="M3.69141 5.36426V11.7613C3.69141 12.353 4.15539 12.8283 4.73301 12.8283H5.42426V15.0108C5.42426 15.554 5.85984 16.0002 6.39011 16.0002C6.92039 16.0002 7.35597 15.554 7.35597 15.0108V12.8283H8.64377V15.0108C8.64377 15.554 9.07935 16.0002 9.60963 16.0002C10.1399 16.0002 10.5755 15.554 10.5755 15.0108V12.8283H11.2667C11.8443 12.8283 12.3083 12.353 12.3083 11.7613V5.36426H3.69141Z" fill="#79C257"/>
</svg>
