<svg xmlns="http://www.w3.org/2000/svg" width="16" height="16" fill="none"><path d="M8.341 8.807c.03-.533.291-1.003.685-1.337.387-.327.907-.527 1.475-.527s1.088.2 1.475.527a1.89 1.89 0 0 1 .685 1.337c.03.548-.19 1.058-.577 1.435a2.26 2.26 0 0 1-1.583.625c-.628 0-1.19-.241-1.584-.625-.386-.377-.607-.887-.576-1.435z" fill="#005385"/><path d="M4.901 9.887c.004.208.071.614.17.931a4.91 4.91 0 0 0 1.062 1.838 5.48 5.48 0 0 0 1.858 1.334c.761.337 1.585.509 2.439.507s1.679-.176 2.439-.515c.723-.324 1.348-.777 1.857-1.34a4.95 4.95 0 0 0 1.061-1.842 4.65 4.65 0 0 0 .2-1.028c.026-.34.015-.681-.033-1.021-.094-.663-.324-1.286-.677-1.853-.324-.521-.74-.977-1.235-1.362l.001-.001-4.997-3.838c-.342-.262-.893-.261-1.253-.009s-.406.677-.082.943l-.001.001 2.085 1.696-6.354.007c-.534 0-1.038.346-1.139.781-.102.444.255.811.8.814l-.001.002 3.221-.006-5.747 4.411-.022.016c-.542.415-.717 1.106-.376 1.543.347.444 1.083.445 1.631.002l3.137-2.566s-.046.347-.042.555zm8.059 1.16c-.646.659-1.55 1.032-2.53 1.034s-1.885-.368-2.531-1.026c-.316-.321-.548-.689-.691-1.082-.14-.386-.195-.795-.159-1.208.035-.404.154-.789.347-1.138a3.15 3.15 0 0 1 .769-.914 3.58 3.58 0 0 1 2.265-.79c.837-.001 1.636.274 2.265.784.32.261.58.569.768.911a2.86 2.86 0 0 1 .347 1.137c.036.413-.019.822-.159 1.208-.143.394-.375.762-.691 1.084z" fill="#ff7021"/></svg>