<svg xmlns="http://www.w3.org/2000/svg" width="16" height="16" fill="none"><path d="M5.337 16a2.67 2.67 0 0 0 2.667-2.667v-2.667H5.337a2.67 2.67 0 0 0-2.667 2.667A2.67 2.67 0 0 0 5.337 16z" fill="#0acf83"/><path d="M2.67 8a2.67 2.67 0 0 1 2.667-2.667h2.667v5.333H5.337A2.67 2.67 0 0 1 2.67 8z" fill="#a259ff"/><path d="M2.67 2.667A2.67 2.67 0 0 1 5.337 0h2.667v5.333H5.337A2.67 2.67 0 0 1 2.67 2.667z" fill="#f24e1e"/><path d="M8.004 0h2.667a2.67 2.67 0 0 1 2.667 2.667 2.67 2.67 0 0 1-2.667 2.667H8.004V0z" fill="#ff7262"/><path d="M13.337 8a2.67 2.67 0 0 1-2.667 2.667A2.67 2.67 0 0 1 8.004 8a2.67 2.67 0 0 1 2.667-2.667A2.67 2.67 0 0 1 13.337 8z" fill="#1abcfe"/></svg>