<svg xmlns="http://www.w3.org/2000/svg" width="16" height="16" fill="none"><circle cx="8" cy="8" r="8" fill="url(#A)"/><path d="M4.913 7.967L6.28 9.294c.4.388.405 1.028.01 1.422-.387.386-1.013.39-1.406.01L2.821 8.723a1 1 0 0 1-.144-.176 1 1 0 0 1 .109-1.265L4.8 5.223A1 1 0 0 1 6.231 6.62L4.913 7.967zM11.069 8L9.736 6.706a1 1 0 0 1-.01-1.422c.387-.386 1.014-.39 1.406-.009l2.064 2.005c.22.213.32.503.3.785-.014.24-.115.475-.301.656l-2.065 2.005a1 1 0 0 1-1.395-1.433L11.069 8z" fill-rule="evenodd" fill="#fff"/><defs><linearGradient id="A" x1="8" y1="0" x2="8" y2="16" gradientUnits="userSpaceOnUse"><stop stop-color="#2d68ff"/><stop offset="1" stop-color="#2450bf"/></linearGradient></defs></svg>