<svg xmlns="http://www.w3.org/2000/svg" width="16" height="16" fill="none"><path d="M8 2h7.7v11.7H8V2z" fill="#fff" fill-opacity=".82"/><path d="M15.474 13.222H9.149v-1.357h4.932v-.63H9.149V10.17h4.932v-.63H9.149V7.789c.397.479.988.783 1.649.783 1.197 0 2.167-.997 2.167-2.227h-2.167V4.118c-.661 0-1.251.304-1.649.783V2.423h6.326l-.001 10.799zm.001-11.339H9.149V.184L0 1.816v12.373l9.149 1.632v-2.059h6.326c.29 0 .525-.242.525-.54V2.423c0-.298-.236-.54-.525-.54zm-4.34 1.919v2.227h2.167c0-1.23-.97-2.227-2.167-2.227z" fill="#cb4a32"/><path fill-rule="evenodd" d="M3.872 7.907c.365.029.722.099.943-.29.168-.293.153-.83-.041-1.055-.251-.292-.576-.25-.902-.197v1.542zm-.026 2.761H2.93V5.411l2.111.014c.184.009.398.15.534.294.52.552.52 1.24.365 1.926-.139.611-.522 1.041-1.127 1.192-.301.075-.623.061-.967.091v1.74z" fill="#fff"/></svg>