<svg xmlns="http://www.w3.org/2000/svg" width="16" height="16" fill="none"><path d="M13.167 16H2.833C1.267 16 0 14.701 0 13.094V2.906C0 1.299 1.267 0 2.833 0h10.333C14.733 0 16 1.299 16 2.906v10.188C16 14.701 14.733 16 13.167 16z" fill="#00c8ff"/><path d="M12.695 15H3.311C2.038 15 1 13.934 1 12.625v-9.25C1 2.066 2.038 1 3.311 1h9.378C13.969 1 15 2.066 15 3.375v9.244C15.006 13.934 13.969 15 12.695 15z" fill="#001d26"/><path d="M3.787 4.111c0-.046.093-.079.147-.079L5.654 4C7.5 4 8.22 4.996 8.22 6.274c0 1.664-1.227 2.379-2.733 2.379-.253 0-.34-.013-.52-.013v2.516c0 .052-.02.079-.08.079h-1.02c-.053 0-.08-.02-.08-.079V4.111zm1.187 3.479c.153.013.273.013.54.013.78 0 1.513-.269 1.513-1.311 0-.832-.527-1.252-1.413-1.252l-.64.02v2.529zm5.733-.78c-.527 0-.707.262-.707.478 0 .236.12.4.827.76 1.047.498 1.373.976 1.373 1.678 0 1.048-.813 1.612-1.913 1.612-.58 0-1.08-.118-1.367-.282-.047-.02-.053-.053-.053-.105v-.963c0-.066.033-.085.08-.052.42.269.9.387 1.34.387.527 0 .747-.216.747-.511 0-.236-.153-.446-.827-.786-.947-.446-1.34-.898-1.34-1.651 0-.845.673-1.546 1.84-1.546.573 0 .973.085 1.193.183.053.033.067.085.067.131v.898c0 .052-.033.085-.1.066-.293-.183-.727-.295-1.16-.295z" fill="#00c8ff"/></svg>