<svg width="18" height="16" viewBox="0 0 18 16" fill="none" xmlns="http://www.w3.org/2000/svg">
<path d="M8.99983 10.8738C13.226 10.8738 16.652 9.58731 16.652 8.00036C16.652 6.41342 13.226 5.12695 8.99983 5.12695C4.77365 5.12695 1.34766 6.41342 1.34766 8.00036C1.34766 9.58731 4.77365 10.8738 8.99983 10.8738Z" stroke="#61DAFB"/>
<path d="M6.46861 9.43667C8.5817 13.0361 11.4276 15.3108 12.825 14.5173C14.2224 13.7239 13.6423 10.1627 11.5292 6.56326C9.41612 2.96382 6.57027 0.689133 5.17282 1.4826C3.77538 2.27607 4.35552 5.83723 6.46861 9.43667Z" stroke="#61DAFB"/>
<path d="M6.46878 6.5629C4.35569 10.1623 3.77555 13.7235 5.17299 14.517C6.57044 15.3104 9.41629 13.0357 11.5294 9.43631C13.6425 5.83687 14.2226 2.27571 12.8252 1.48224C11.4277 0.688769 8.58187 2.96346 6.46878 6.5629Z" stroke="#61DAFB"/>
<path d="M9.00031 9.40265C9.78791 9.40265 10.4264 8.77473 10.4264 8.00015C10.4264 7.22558 9.78791 6.59766 9.00031 6.59766C8.2127 6.59766 7.57422 7.22558 7.57422 8.00015C7.57422 8.77473 8.2127 9.40265 9.00031 9.40265Z" fill="#61DAFB"/>
</svg>
