<svg xmlns="http://www.w3.org/2000/svg" width="16" height="16" fill="none"><g fill="#ea6c00"><path d="M3.24 5.921L8 15.25l-8-9.33h3.24z"/><path d="M12.76 5.921L8 15.25l8-9.33h-3.24z"/></g><path d="M3.24 5.921h9.519L8 15.25l-4.76-9.33z" fill="#fdad00"/><g fill="#fdd231"><path d="M8 .75l-4.509.477L3.24 5.92 8 .75z"/><path d="M8 .75l4.509.477.251 4.693L8 .75z"/></g><path d="M16 5.92l-3.491-4.693.251 4.693H16zm-16 0l3.491-4.693-.25 4.693H0z" fill="#fdad00"/><path d="M8 .75L3.24 5.92h9.519L8 .75z" fill="#feeeb7"/></svg>