<svg width="16" height="16" viewBox="0 0 16 16" fill="none" xmlns="http://www.w3.org/2000/svg">
<path d="M12.0686 14.1756C10.1839 15.2643 7.59252 15.3762 4.98535 14.2588C2.87438 13.3607 1.12282 11.7885 0 9.99226C0.538959 10.4413 1.16773 10.8007 1.84141 11.1149C4.53386 12.3769 7.22575 12.2905 9.12015 11.1182C9.11893 11.1169 9.11813 11.1161 9.11732 11.1149C6.42252 9.0489 4.13197 6.35411 2.42536 4.15361C2.0659 3.79427 1.79642 3.34513 1.52694 2.94093C3.59293 4.82724 6.87171 7.20745 8.0392 7.88145C5.56934 5.27631 3.36843 2.0428 3.45809 2.13245C7.3656 6.08479 11.0038 8.33052 11.0038 8.33052C11.1241 8.39836 11.217 8.4549 11.2917 8.50538C11.3704 8.30508 11.4395 8.0971 11.4976 7.88145C12.1264 5.5909 11.408 2.98575 9.83586 0.830078C13.4736 3.03078 15.6297 7.16263 14.7312 10.6211C14.7077 10.7144 14.6823 10.8064 14.6548 10.8969C14.6653 10.9094 14.6758 10.9223 14.6863 10.9357C16.4826 13.1814 15.9887 15.5616 15.7642 15.1125C14.7897 13.2056 12.9858 13.7888 12.0687 14.1756L12.0686 14.1756Z" fill="url(#paint0_linear_127_10331)"/>
<defs>
<linearGradient id="paint0_linear_127_10331" x1="8" y1="0.830078" x2="8" y2="15.1676" gradientUnits="userSpaceOnUse">
<stop stop-color="#F88A36"/>
<stop offset="1" stop-color="#FD2020"/>
</linearGradient>
</defs>
</svg>
