<svg xmlns="http://www.w3.org/2000/svg" width="16" height="16" fill="none"><path d="M13.167 16H2.833C1.267 16 0 14.701 0 13.094V2.906C0 1.299 1.267 0 2.833 0h10.333C14.733 0 16 1.299 16 2.906v10.188C16 14.701 14.733 16 13.167 16z" fill="#ff26be"/><path d="M12.695 15H3.311C2.038 15 1 13.934 1 12.625v-9.25C1 2.066 2.038 1 3.311 1h9.378C13.969 1 15 2.066 15 3.375v9.244C15.006 13.934 13.969 15 12.695 15z" fill="#2e001f"/><path d="M6.419 7.859l1.911 3.61c.034.054.014.107-.041.107H7.102c-.075 0-.109-.02-.143-.087L5.621 8.765h-.014L4.31 11.496c-.034.054-.068.074-.123.074H3.061c-.068 0-.075-.054-.041-.094l1.87-3.502-1.809-3.543c-.041-.054 0-.094.041-.094h1.174c.068 0 .096.013.123.074l1.276 2.69h.014l1.256-2.684c.034-.054.055-.087.123-.087h1.099c.055 0 .075.04.041.094L6.419 7.859zm2.246 1.094c0-1.563 1.058-2.784 2.737-2.784l.355.013V4.404c0-.04.034-.067.068-.067h1.079c.055 0 .068.02.068.054v6.159c0 .181 0 .409.034.658 0 .04-.014.054-.055.074-.573.268-1.174.389-1.747.389-1.481.007-2.539-.892-2.539-2.717zm3.092-1.718c-.096-.04-.232-.067-.396-.067-.86 0-1.461.651-1.461 1.731 0 1.234.614 1.731 1.386 1.731.164 0 .341-.02.471-.074V7.235z" fill="#ff26be"/></svg>